<svg id="Layer_1" data-name="Layer 1" xmlns="http://www.w3.org/2000/svg" xmlns:xlink="http://www.w3.org/1999/xlink" width="200" height="57.2893" viewBox="0 0 200 57.2893"><defs><style>.cls-1{fill:#091e15;}.cls-2{fill:url(#linear-gradient);}.cls-3{fill:url(#linear-gradient-4);}</style><linearGradient id="linear-gradient" x1="13.1852" y1="-3569.4133" x2="13.1852" y2="-3649.6886" gradientTransform="matrix(1, 0, 0, -1, 0, -3595.4521)" gradientUnits="userSpaceOnUse"><stop offset="0" stop-color="#f9a66f"/><stop offset="1" stop-color="#f26722"/></linearGradient><linearGradient id="linear-gradient-4" x1="21.272" y1="-3569.4133" x2="21.272" y2="-3649.6886" xlink:href="#linear-gradient"/></defs><path class="cls-1" d="M199.4717,55.9819,1.0934,57.2887a.5435.5435,0,0,1-.5593-.4333L.0116,54.359a.5549.5549,0,0,1,.6-.6625l198.9008,1.19A.55.55,0,0,1,199.4717,55.9819Z"/><path class="cls-1" d="M40.7538,27.979H35.7914V45.1812H32.5565V27.979h-3.455V26.4712l3.455-1.1025v-1.14q0-3.8217,1.691-5.4951a6.4021,6.4021,0,0,1,4.705-1.6719,10.6,10.6,0,0,1,2.15.2022,11.9882,11.9882,0,0,1,1.6724.459L41.93,20.2593q-.5889-.1832-1.36-.3672a6.82,6.82,0,0,0-1.5805-.1836,2.7814,2.7814,0,0,0-2.4073,1.084,5.82,5.82,0,0,0-.79,3.4V25.479h4.9624Z"/><path class="cls-1" d="M61.4481,35.2935q0,4.8882-2.4809,7.5723a8.6912,8.6912,0,0,1-6.7085,2.6826,9.0243,9.0243,0,0,1-4.65-1.1944,8.3144,8.3144,0,0,1-3.2163-3.4922,12.0972,12.0972,0,0,1-1.1763-5.5683q0-4.8882,2.4629-7.5352a8.6923,8.6923,0,0,1,6.69-2.6465,9.1787,9.1787,0,0,1,4.7232,1.1944A8.2515,8.2515,0,0,1,60.29,29.7613,12.0318,12.0318,0,0,1,61.4481,35.2935Zm-14.8867,0A9.755,9.755,0,0,0,47.94,40.8257a4.9208,4.9208,0,0,0,4.3926,2.04,4.93,4.93,0,0,0,4.374-2.04,9.6555,9.6555,0,0,0,1.397-5.5322,9.3838,9.3838,0,0,0-1.397-5.4766,5.02,5.02,0,0,0-4.4111-1.9853,4.9217,4.9217,0,0,0-4.374,1.9853A9.5771,9.5771,0,0,0,46.5614,35.2935Z"/><path class="cls-1" d="M75.747,25.1118q.5508,0,1.1943.0547a8.0813,8.0813,0,0,1,1.1211.166l-.4043,2.9766q-.4782-.11-1.0474-.1836a8.5328,8.5328,0,0,0-1.0844-.0732,5.2455,5.2455,0,0,0-2.8306.8271,5.9517,5.9517,0,0,0-2.1133,2.3155,7.2957,7.2957,0,0,0-.7905,3.4736V45.1812H66.5575V25.479H69.204l.3677,3.6026h.147a9.9207,9.9207,0,0,1,2.4628-2.794A5.6209,5.6209,0,0,1,75.747,25.1118Z"/><path class="cls-1" d="M88.6122,25.1118a8.2443,8.2443,0,0,1,4.3555,1.1026A7.2492,7.2492,0,0,1,95.7616,29.32a10.6139,10.6139,0,0,1,.9737,4.6875v1.9472h-13.49a7.4356,7.4356,0,0,0,1.709,5.0918,5.9634,5.9634,0,0,0,4.5767,1.7451,14.2621,14.2621,0,0,0,3.3261-.3486,18.8,18.8,0,0,0,2.9961-1.0107v2.83a15.2612,15.2612,0,0,1-2.9775.9737,17.0311,17.0311,0,0,1-3.4917.3125A10.3991,10.3991,0,0,1,84.44,44.41a7.9351,7.9351,0,0,1-3.3447-3.4A11.72,11.72,0,0,1,79.9,35.4771a12.9975,12.9975,0,0,1,1.0845-5.5508,8.2485,8.2485,0,0,1,3.0507-3.5654A8.3569,8.3569,0,0,1,88.6122,25.1118Zm-.0371,2.6465a4.6758,4.6758,0,0,0-3.6572,1.4883,7.0131,7.0131,0,0,0-1.5992,4.1358H93.3539A6.9141,6.9141,0,0,0,92.1776,29.32,4.16,4.16,0,0,0,88.5751,27.7583Z"/><path class="cls-1" d="M110.8134,27.979H105.851V45.1812h-3.2349V27.979H99.161V26.4712l3.4551-1.1025v-1.14q0-3.8217,1.6909-5.4951a6.4023,6.4023,0,0,1,4.7051-1.6719,10.6,10.6,0,0,1,2.15.2022,11.9959,11.9959,0,0,1,1.6724.459l-.8453,2.5361q-.5888-.1832-1.36-.3672a6.8209,6.8209,0,0,0-1.5806-.1836,2.7814,2.7814,0,0,0-2.4072,1.084,5.82,5.82,0,0,0-.79,3.4V25.479h4.9624Zm6.8,17.2022h-3.2349V17.2456h3.2349Z"/><path class="cls-1" d="M131.3241,25.148q3.6014,0,5.33,1.581t1.7275,5.0352v13.417h-2.3525l-.6245-2.794h-.1475a9.1,9.1,0,0,1-2.7016,2.39,8.248,8.248,0,0,1-3.9146.7715,6.8773,6.8773,0,0,1-4.4477-1.4151,5.3356,5.3356,0,0,1-1.7642-4.4287,5.1934,5.1934,0,0,1,2.3154-4.54q2.316-1.5981,7.1314-1.7461l3.3447-.11V32.1324a4.4608,4.4608,0,0,0-1.0659-3.419,4.3645,4.3645,0,0,0-3.0142-.9551,9.3665,9.3665,0,0,0-2.94.459,21.1706,21.1706,0,0,0-2.61,1.0479l-.9926-2.4258a14.8019,14.8019,0,0,1,3.0512-1.1953A13.5374,13.5374,0,0,1,131.3241,25.148Zm.9556,10.5127q-3.676.1479-5.0908,1.1767a3.38,3.38,0,0,0-1.4156,2.9034,2.8582,2.8582,0,0,0,1.0108,2.4267,4.1553,4.1553,0,0,0,2.5918.7715,6.2686,6.2686,0,0,0,4.1533-1.3789,5.2121,5.2121,0,0,0,1.6543-4.2451V35.55Z"/><path class="cls-1" d="M166.0961,25.1118a6.66,6.66,0,0,1,4.999,1.709q1.6545,1.71,1.6543,5.5323V45.1812h-3.1982V32.4995q0-4.6669-4.0064-4.6679a4.7779,4.7779,0,0,0-4.0986,1.6543,7.9774,7.9774,0,0,0-1.2315,4.8154v10.88H157.017V32.4995q0-4.6669-4.0435-4.6679-2.9772,0-4.1167,1.8379a10.1125,10.1125,0,0,0-1.14,5.2929V45.1812h-3.2344V25.479h2.61l.4775,2.6836h.1841a5.7472,5.7472,0,0,1,2.481-2.2978,7.5635,7.5635,0,0,1,3.3266-.753q4.6311,0,6.0283,3.3077h.1836a6.1115,6.1115,0,0,1,2.7017-2.4991A8.3636,8.3636,0,0,1,166.0961,25.1118Z"/><path class="cls-1" d="M186.46,25.1118a8.2439,8.2439,0,0,1,4.3554,1.1026,7.25,7.25,0,0,1,2.794,3.1055,10.6139,10.6139,0,0,1,.9736,4.6875v1.9472h-13.49a7.4355,7.4355,0,0,0,1.7089,5.0918,5.9637,5.9637,0,0,0,4.5767,1.7451,14.2636,14.2636,0,0,0,3.3262-.3486,18.8,18.8,0,0,0,2.9961-1.0107v2.83a15.262,15.262,0,0,1-2.9776.9737,17.03,17.03,0,0,1-3.4917.3125,10.3987,10.3987,0,0,1-4.9443-1.1387,7.9351,7.9351,0,0,1-3.3447-3.4,11.72,11.72,0,0,1-1.1949-5.5322,12.999,12.999,0,0,1,1.0845-5.5508,8.2494,8.2494,0,0,1,3.0508-3.5654A8.3564,8.3564,0,0,1,186.46,25.1118Zm-.0371,2.6465a4.6762,4.6762,0,0,0-3.6573,1.4883,7.013,7.013,0,0,0-1.5991,4.1358h10.0352a6.9141,6.9141,0,0,0-1.1763-4.0625A4.16,4.16,0,0,0,186.4228,27.7583Z"/><path class="cls-2" d="M10.6,20.6752H3.9554a.4122.4122,0,0,1-.3018-.6929L13.8768,8.9889,22.11.1359a.4122.4122,0,0,1,.656.4915L10.9537,20.4738A.4121.4121,0,0,1,10.6,20.6752Z"/><path class="cls-2" d="M10.6,33.15H3.9554a.4121.4121,0,0,1-.3018-.6927L13.8768,21.4636l8.2327-8.853a.4122.4122,0,0,1,.656.4915L10.9537,32.9487A.4123.4123,0,0,1,10.6,33.15Z"/><path class="cls-2" d="M10.6,45.6247H3.9554a.4122.4122,0,0,1-.3018-.6929L13.8768,33.9384l8.2327-8.853a.4122.4122,0,0,1,.656.4915L10.9537,45.4233A.4123.4123,0,0,1,10.6,45.6247Z"/><path class="cls-3" d="M22.8776,51.3907v-13.23a.4121.4121,0,0,0-.7862-.1728L19.7044,43.15a.4118.4118,0,0,0-.0211.29L22.07,51.5075A.4122.4122,0,0,0,22.8776,51.3907Z"/></svg>