<svg width="35" height="51" viewBox="0 0 35 51" fill="none" xmlns="http://www.w3.org/2000/svg">
<path d="M34.9063 33.1033C34.9172 29.0786 33.4834 25.1834 30.8658 22.126L29.9211 20.8454C25.4299 15.1067 21.9829 8.62292 19.7366 1.69068C19.5786 1.35034 19.3264 1.06192 19.0101 0.859896C18.6937 0.657872 18.3259 0.550537 17.9506 0.550537C17.5749 0.550537 17.2076 0.657876 16.8912 0.859896C16.5744 1.06192 16.3227 1.35034 16.1643 1.69068C13.9211 8.62403 10.4736 15.1083 5.98016 20.8454L5.13498 22.0038C3.34339 24.0729 2.07892 26.5447 1.45015 29.2082C0.821387 31.872 0.846698 34.6484 1.52389 37.3C2.20108 39.952 3.51051 42.4003 5.33963 44.4358C7.16876 46.4718 9.4639 48.0348 12.0282 48.9907C14.593 49.9467 17.3506 50.2679 20.066 49.9267C22.7817 49.585 25.3741 48.5915 27.6221 47.0302C29.8701 45.4694 31.707 43.3868 32.9755 40.9617C34.2439 38.5365 34.9063 35.8404 34.9063 33.1032L34.9063 33.1033ZM17.951 46.2808C14.4573 46.2765 11.1079 44.8871 8.63783 42.4166C6.16776 39.9465 4.77797 36.5971 4.77406 33.1034C4.78584 29.8833 5.96313 26.7757 8.08759 24.3554L9.02092 23.0935C12.6993 18.3858 15.7043 13.19 17.9509 7.65401C20.2007 13.1885 23.2071 18.3843 26.8845 23.0924L27.9139 24.476C29.5663 26.3859 30.6348 28.7303 30.993 31.2301C31.3513 33.7299 30.9839 36.2803 29.934 38.5771C28.8847 40.8739 27.1969 42.8209 25.0728 44.1862C22.9482 45.5515 20.4764 46.2797 17.9509 46.2806L17.951 46.2808Z" fill="black"/>
<path d="M26.8511 31.2625C26.2817 31.2616 25.7241 31.1019 25.2402 30.8017C24.7567 30.5015 24.3662 30.0722 24.1131 29.5621C23.9578 29.2457 23.7173 28.9791 23.4189 28.7919C23.12 28.6052 22.7753 28.5053 22.4232 28.504H22.4153C22.0645 28.5044 21.7211 28.6021 21.4226 28.7867C21.1242 28.9708 20.8829 29.2344 20.7258 29.5481C20.4396 30.0233 20.0355 30.4168 19.5529 30.6908C19.0704 30.9644 18.5254 31.1093 17.9708 31.111C17.4158 31.1132 16.8699 30.9718 16.3856 30.7013C15.9013 30.4308 15.4946 30.0398 15.2054 29.5664C15.0518 29.2496 14.8123 28.9817 14.5142 28.7941C14.2162 28.6065 13.8715 28.5057 13.5194 28.5039H13.508C13.1572 28.5043 12.8134 28.6021 12.5149 28.7866C12.2169 28.9708 11.9756 29.2343 11.8181 29.5481C11.5598 30.0607 11.1653 30.4923 10.6775 30.7946C10.1901 31.0975 9.62814 31.2598 9.05393 31.2637C8.55302 31.2637 8.07261 31.4627 7.71831 31.817C7.36401 32.1713 7.16504 32.6521 7.16504 33.1531C7.16504 36.0141 8.30127 38.7583 10.3245 40.7811C12.3478 42.8043 15.0915 43.941 17.9526 43.941C20.8136 43.941 23.5578 42.8043 25.5806 40.7811C27.6038 38.7583 28.7405 36.0141 28.7405 33.1531C28.7405 32.9048 28.6921 32.6591 28.597 32.4296C28.5023 32.2001 28.3631 31.9915 28.1877 31.8161C28.0123 31.6407 27.8037 31.5011 27.5746 31.4064C27.3451 31.3113 27.0995 31.2624 26.8512 31.2624L26.8511 31.2625Z" fill="black"/>
</svg>
