<svg width="46" height="46" viewBox="0 0 46 46" fill="none" xmlns="http://www.w3.org/2000/svg">
<path d="M38.8447 7.15534C34.6127 2.92247 28.9852 0.592041 23.0001 0.592041C17.015 0.592041 11.3873 2.92247 7.15538 7.15534C-1.58174 15.8925 -1.58174 30.1085 7.15538 38.8447C11.3874 43.0771 17.015 45.408 23.0001 45.408C28.9852 45.408 34.6128 43.0776 38.8447 38.8447C47.5819 30.1076 47.5819 15.8926 38.8447 7.15534ZM5.35645 24.4936C4.48502 24.4936 3.77485 23.7843 3.77485 22.9116C3.77485 22.0389 4.48421 21.3296 5.35645 21.3296C6.2287 21.3296 6.93847 22.039 6.93847 22.9116C6.93847 23.7843 6.22869 24.4936 5.35645 24.4936ZM33.6522 9.24257C34.2502 8.64541 35.2907 8.64458 35.8891 9.24257C36.5058 9.85968 36.5058 10.8628 35.8891 11.4791C35.5903 11.7778 35.193 11.9424 34.7708 11.9424C34.3482 11.9424 33.9505 11.7778 33.6517 11.4791C33.0358 10.8628 33.0358 9.85959 33.6521 9.24257H33.6522ZM22.4799 3.84076C23.3521 3.84076 24.0619 4.55013 24.0619 5.42236C24.0619 6.29459 23.3525 7.00438 22.4799 7.00438C21.6084 7.00438 20.8983 6.29502 20.8983 5.42236C20.8983 4.5501 21.6076 3.84076 22.4799 3.84076ZM9.17666 9.50236C9.77382 8.90478 10.816 8.90437 11.4136 9.50236C12.0303 10.1191 12.0303 11.1223 11.414 11.7388C11.1144 12.0376 10.7171 12.2018 10.2948 12.2018C9.87221 12.2018 9.47495 12.0376 9.17569 11.7388C8.56067 11.1222 8.56067 10.119 9.17653 9.50236H9.17666ZM11.6738 36.2141C11.3746 36.5128 10.9777 36.677 10.5555 36.677C10.1329 36.677 9.7356 36.5128 9.43719 36.2141C9.13841 35.9153 8.97384 35.518 8.97384 35.0958C8.97384 34.6731 9.13841 34.2755 9.43719 33.9766C10.0327 33.3803 11.0761 33.379 11.6737 33.977C12.29 34.5937 12.29 35.5969 11.6737 36.2139L11.6738 36.2141ZM14.4871 20.3662C14.3998 20.3662 14.3121 20.355 14.2261 20.3321C13.8783 20.239 13.6069 19.9673 13.5139 19.6198L11.8026 13.231C11.7087 12.8832 11.8088 12.5121 12.0635 12.2578C12.3179 12.0035 12.6898 11.9041 13.0368 11.9968L19.4256 13.7089C19.7734 13.802 20.0448 14.0738 20.1379 14.4212C20.2318 14.769 20.1312 15.1401 19.8769 15.3944L15.2002 20.0707C15.0078 20.2619 14.7506 20.3662 14.4871 20.3662L14.4871 20.3662ZM22.846 41.6162C21.9738 41.6162 21.264 40.9068 21.264 40.0346C21.264 39.1623 21.9734 38.4526 22.846 38.4526C23.7187 38.4526 24.428 39.1619 24.428 40.0346C24.428 40.9069 23.7187 41.6162 22.846 41.6162ZM32.3902 28.28C31.5487 27.8911 30.0044 28.3577 29.0836 29.2782C28.2745 30.0873 27.7717 31.9739 28.0663 32.5473C28.3219 33.0414 28.1274 33.6498 27.6324 33.9041C27.4849 33.9802 27.3278 34.0163 27.172 34.0163C26.8063 34.0163 26.4539 33.8173 26.2757 33.4703C25.617 32.1933 26.1173 30.0723 27.0303 28.6499L24.7547 26.3742C24.0956 26.7923 23.3322 27.0196 22.5335 27.0196C21.4215 27.0196 20.3768 26.587 19.5901 25.8003C18.1905 24.4003 18.0014 22.2444 19.0166 20.6362L17.5318 19.1514L18.9568 17.7264L20.4732 19.2428C21.0945 18.8875 21.7984 18.6951 22.5331 18.6951C23.6443 18.6951 24.6895 19.1273 25.4757 19.9139C26.8283 21.267 27.0485 23.3269 26.1451 24.9148L28.4374 27.2066C29.7988 26.2599 31.7036 25.7401 33.2366 26.4503C33.7415 26.6842 33.9609 27.283 33.7274 27.7879C33.4939 28.2945 32.8938 28.5122 32.3902 28.2799V28.28ZM36.1489 35.9542C35.8501 36.253 35.4528 36.4175 35.0306 36.4175C34.608 36.4175 34.2103 36.253 33.9114 35.9542C33.6131 35.6558 33.4485 35.2585 33.4485 34.8359C33.4485 34.4137 33.6131 34.016 33.9119 33.7176C34.5082 33.1204 35.5496 33.1196 36.1484 33.7176C36.7646 34.3343 36.7646 35.3375 36.1488 35.9541L36.1489 35.9542ZM39.9695 24.1265C39.0973 24.1265 38.3875 23.4171 38.3875 22.5445C38.3875 21.6718 39.0969 20.9625 39.9695 20.9625C40.8422 20.9625 41.5516 21.6718 41.5516 22.5445C41.5516 23.4172 40.8418 24.1265 39.9695 24.1265ZM22.544 19.697C20.8078 19.697 19.3953 21.1095 19.3953 22.8458C19.3953 24.5819 20.8077 25.9945 22.544 25.9945C24.2802 25.9945 25.6927 24.582 25.6927 22.8458C25.6927 21.1096 24.2803 19.697 22.544 19.697ZM22.544 24.9871C21.3629 24.9871 20.4026 24.0268 20.4026 22.8458C20.4026 21.6647 21.363 20.7044 22.544 20.7044C23.7251 20.7044 24.6854 21.6647 24.6854 22.8458C24.6854 24.0268 23.725 24.9871 22.544 24.9871Z" fill="#021B11"/>
</svg>
