<svg id="Layer_1" data-name="Layer 1" xmlns="http://www.w3.org/2000/svg" xmlns:xlink="http://www.w3.org/1999/xlink" width="923.2886" height="264.4728" viewBox="0 0 923.2886 264.4728"><defs><style>.cls-1,.cls-2{fill:#091e15;}.cls-2{font-size:169.6894px;font-family:NotoSans-Regular, Noto Sans;}.cls-3{letter-spacing:-0.02em;}.cls-4{fill:url(#linear-gradient);}.cls-5{fill:url(#linear-gradient-4);}</style><linearGradient id="linear-gradient" x1="60.8689" y1="-3268.0621" x2="60.8689" y2="-3638.6485" gradientTransform="matrix(1, 0, 0, -1, 0, -3388.2686)" gradientUnits="userSpaceOnUse"><stop offset="0" stop-color="#f9a66f"/><stop offset="1" stop-color="#f26722"/></linearGradient><linearGradient id="linear-gradient-4" x1="98.2009" y1="-3268.0621" x2="98.2009" y2="-3638.6485" xlink:href="#linear-gradient"/></defs><path class="cls-1" d="M920.85,258.4374,5.0474,264.47a2.509,2.509,0,0,1-2.5819-2L.0535,250.9453a2.5618,2.5618,0,0,1,2.7717-3.0584L921.04,253.379A2.5385,2.5385,0,0,1,920.85,258.4374Z"/><text class="cls-2" transform="translate(131.8002 208.5759)">fo<tspan class="cls-3" x="161.0332" y="0">r</tspan><tspan x="227.7217" y="0">eflame</tspan></text><path class="cls-4" d="M48.9322,95.4459H18.26a1.9028,1.9028,0,0,1-1.3934-3.1985L64.0613,41.4968,102.0671.6274a1.9027,1.9027,0,0,1,3.0284,2.2689l-54.5282,91.62A1.9026,1.9026,0,0,1,48.9322,95.4459Z"/><path class="cls-4" d="M48.9322,153.0344H18.26a1.9024,1.9024,0,0,1-1.3934-3.1979L64.0613,99.0857l38.0058-40.8694a1.9028,1.9028,0,0,1,3.0284,2.269L50.5673,152.1058A1.9031,1.9031,0,0,1,48.9322,153.0344Z"/><path class="cls-4" d="M48.9322,210.6241H18.26a1.9032,1.9032,0,0,1-1.3934-3.1992l47.1947-50.75,38.0058-40.87a1.9027,1.9027,0,0,1,3.0284,2.2688l-54.5282,91.62A1.9042,1.9042,0,0,1,48.9322,210.6241Z"/><path class="cls-5" d="M105.6133,237.2422v-61.073a1.9026,1.9026,0,0,0-3.63-.7979L90.9642,199.1975a1.9024,1.9024,0,0,0-.0976,1.3382l11.0193,37.2456A1.9028,1.9028,0,0,0,105.6133,237.2422Z"/></svg>