<svg width="33" height="61" viewBox="0 0 33 61" fill="none" xmlns="http://www.w3.org/2000/svg">
<path d="M10.7639 60.1777C19.1184 61.7986 26.3498 55.4394 26.3498 47.3342C26.3498 43.0947 24.23 39.2291 20.9881 36.8599L20.9876 8.30528C20.9876 4.06579 17.6208 0.574463 13.2568 0.574463C9.01729 0.574463 5.52596 4.06579 5.52596 8.30528V36.8599C1.66035 39.7279 -0.58387 44.5908 0.538174 50.0775C1.53582 55.0658 5.65037 59.1804 10.7631 60.178L10.7639 60.1777ZM7.1476 39.2297L8.26969 38.3571V8.43063C8.26969 5.68759 10.5144 3.56778 13.1325 3.56778C15.8756 3.56778 18.1203 5.81252 18.1203 8.43063V38.3571L19.2424 39.2297C21.861 41.1001 23.3575 44.2175 23.3575 47.4594C23.3575 50.2024 22.2354 52.821 20.3651 54.6914C18.3699 56.5617 15.8762 57.6838 13.1331 57.6838C8.02093 57.6838 4.03026 54.0675 3.15769 49.5787C2.5339 45.4641 4.03037 41.4741 7.14783 39.2299L7.1476 39.2297Z" fill="#021C11"/>
<path d="M13.2585 54.6906C15.2538 54.6906 17.1241 53.9423 18.4956 52.5708C19.8672 51.1992 20.6154 49.3289 20.6154 47.3336C20.6154 42.3458 16.376 40.725 15.2538 39.7273V18.6543H11.1387V39.7273C10.266 40.725 4.7794 42.7197 6.02651 48.8302C6.64979 52.0721 9.51784 54.6907 13.2585 54.6907V54.6906Z" fill="#021C11"/>
<path d="M31.3379 9.05322H24.2305V11.9212H31.3379C32.0862 11.9212 32.7095 11.2979 32.7095 10.5497C32.8339 9.67648 32.2106 9.05322 31.3379 9.05322Z" fill="#021C11"/>
<path d="M29.9662 18.0317C29.9662 17.2834 29.343 16.6602 28.5947 16.6602H24.3552V19.5281H28.5947C29.343 19.4032 29.9662 18.7799 29.9662 18.0317Z" fill="#021C11"/>
<path d="M32.8347 25.5119C32.8347 24.7637 32.2114 24.1404 31.4632 24.1404H24.3557V27.0084H31.4632C32.2114 27.0084 32.8347 26.2601 32.8347 25.5119Z" fill="#021C11"/>
</svg>
