<svg width="51" height="41" viewBox="0 0 51 41" fill="none" xmlns="http://www.w3.org/2000/svg">
<path fill-rule="evenodd" clip-rule="evenodd" d="M0.120605 13.6685C0.120605 20.6766 5.80214 26.3583 12.8104 26.3583H40.63C41.4387 26.3583 42.0943 25.7028 42.0943 24.894C42.0943 24.0854 41.4387 23.4298 40.63 23.4298H12.8104C7.41962 23.4298 3.04912 19.0598 3.04912 13.6685C3.04912 8.27722 7.41962 3.90721 12.8104 3.90721C15.7157 3.90721 18.3249 5.17631 20.1128 7.19078C20.448 7.56855 20.9176 7.81154 21.4229 7.81154C22.6287 7.81154 23.378 6.53811 22.6118 5.60774C20.2843 2.78125 16.7577 0.97876 12.8104 0.97876C5.8023 0.97876 0.120643 6.66029 0.120643 13.6686L0.120605 13.6685Z" fill="#021B11"/>
<path d="M25.0116 17.5715H46.4857C47.2944 17.5715 47.95 18.3802 47.95 19.0358C47.95 19.8445 47.2944 20.5 46.4857 20.5H25.0116C24.2029 20.5 23.5474 19.6914 23.5474 19.0358C23.5474 18.2271 24.2029 17.5715 25.0116 17.5715Z" fill="#021B11"/>
<path d="M25.9887 35.1426H43.5585C44.3672 35.1426 45.0228 35.9513 45.0228 36.6068C45.0228 37.4155 44.3672 38.0711 43.5585 38.0711H25.9887C25.18 38.0711 24.5244 37.2624 24.5244 36.6068C24.5244 35.7981 25.18 35.1426 25.9887 35.1426Z" fill="#021B11"/>
<path d="M49.4154 35.1426C50.2241 35.1426 50.8797 35.9513 50.8797 36.6068C50.8797 37.4155 50.2241 38.0711 49.4154 38.0711C48.6067 38.0711 47.9512 37.2624 47.9512 36.6068C47.9512 35.7981 48.6067 35.1426 49.4154 35.1426Z" fill="#021B11"/>
<path d="M5.49038 29.2856C6.29907 29.2856 6.95463 30.0943 6.95463 30.7499C6.95463 31.5586 6.29908 32.2142 5.49038 32.2142C4.68169 32.2142 4.02612 31.4055 4.02612 30.7499C4.02612 29.9412 4.68167 29.2856 5.49038 29.2856Z" fill="#021B11"/>
<path fill-rule="evenodd" clip-rule="evenodd" d="M9.88184 35.1425C9.88184 31.9078 12.504 29.2856 15.7382 29.2856H35.7493C36.558 29.2856 37.2136 29.9412 37.2136 30.7499C37.2136 31.5586 36.558 32.2142 35.7493 32.2142H15.7382C14.1209 32.2142 12.8097 33.5253 12.8097 35.1427C12.8097 36.7595 14.1209 38.0707 15.7382 38.0707C16.8469 38.0707 17.8117 37.4547 18.3087 36.5466C18.6971 35.8374 19.3222 35.1427 20.1309 35.1427C20.9396 35.1427 21.6139 35.8084 21.4145 36.592C20.7695 39.1252 18.4725 40.9992 15.7382 40.9992C12.504 40.9992 9.88184 38.377 9.88184 35.1428V35.1425Z" fill="#021B11"/>
</svg>
